<?xml version="1.0" standalone="yes"?>

<svg version="1.1" viewBox="0.0 0.0 666.0 412.0" fill="none" stroke="none" stroke-linecap="square" stroke-miterlimit="10" xmlns="http://www.w3.org/2000/svg" xmlns:xlink="http://www.w3.org/1999/xlink"><clipPath id="p.0"><path d="m0 0l666.0 0l0 412.0l-666.0 0l0 -412.0z" clip-rule="nonzero"></path></clipPath><g clip-path="url(#p.0)"><path fill="#000000" fill-opacity="0.0" d="m0 0l666.09973 0l0 412.30972l-666.09973 0z" fill-rule="nonzero"></path><path fill="#cfe2f3" d="m270.2546 76.06956l0 0c0 -16.681614 25.974518 -30.204727 58.015747 -30.204727l0 0c32.0412 0 58.015747 13.523113 58.015747 30.204727l0 0c0 16.681602 -25.974548 30.20472 -58.015747 30.20472l0 0c-32.04123 0 -58.015747 -13.523117 -58.015747 -30.20472z" fill-rule="nonzero"></path><path stroke="#000000" stroke-width="2.0" stroke-linejoin="round" stroke-linecap="butt" d="m270.2546 76.06956l0 0c0 -16.681614 25.974518 -30.204727 58.015747 -30.204727l0 0c32.0412 0 58.015747 13.523113 58.015747 30.204727l0 0c0 16.681602 -25.974548 30.20472 -58.015747 30.20472l0 0c-32.04123 0 -58.015747 -13.523117 -58.015747 -30.20472z" fill-rule="nonzero"></path><path fill="#cfe2f3" d="m90.908134 275.83072l0 0c0 -16.68161 25.97454 -30.204727 58.015755 -30.204727l0 0c32.041214 0 58.015747 13.523117 58.015747 30.204727l0 0c0 16.68161 -25.974533 30.204712 -58.015747 30.204712l0 0c-32.041214 0 -58.015755 -13.523102 -58.015755 -30.204712z" fill-rule="nonzero"></path><path stroke="#000000" stroke-width="2.0" stroke-linejoin="round" stroke-linecap="butt" d="m90.908134 275.83072l0 0c0 -16.68161 25.97454 -30.204727 58.015755 -30.204727l0 0c32.041214 0 58.015747 13.523117 58.015747 30.204727l0 0c0 16.68161 -25.974533 30.204712 -58.015747 30.204712l0 0c-32.041214 0 -58.015755 -13.523102 -58.015755 -30.204712z" fill-rule="nonzero"></path><path fill="#cfe2f3" d="m275.03412 336.24014l0 0c0 -16.68158 25.974548 -30.204712 58.015747 -30.204712l0 0c32.04123 0 58.015747 13.523132 58.015747 30.204712l0 0c0 16.68161 -25.974518 30.204742 -58.015747 30.204742l0 0c-32.0412 0 -58.015747 -13.523132 -58.015747 -30.204742z" fill-rule="nonzero"></path><path stroke="#000000" stroke-width="2.0" stroke-linejoin="round" stroke-linecap="butt" d="m275.03412 336.24014l0 0c0 -16.68158 25.974548 -30.204712 58.015747 -30.204712l0 0c32.04123 0 58.015747 13.523132 58.015747 30.204712l0 0c0 16.68161 -25.974518 30.204742 -58.015747 30.204742l0 0c-32.0412 0 -58.015747 -13.523132 -58.015747 -30.204742z" fill-rule="nonzero"></path><path fill="#cfe2f3" d="m459.1601 275.83072l0 0c0 -16.68161 25.974548 -30.204727 58.015747 -30.204727l0 0c32.0412 0 58.015747 13.523117 58.015747 30.204727l0 0c0 16.68161 -25.974548 30.204712 -58.015747 30.204712l0 0c-32.0412 0 -58.015747 -13.523102 -58.015747 -30.204712z" fill-rule="nonzero"></path><path stroke="#000000" stroke-width="2.0" stroke-linejoin="round" stroke-linecap="butt" d="m459.1601 275.83072l0 0c0 -16.68161 25.974548 -30.204727 58.015747 -30.204727l0 0c32.0412 0 58.015747 13.523117 58.015747 30.204727l0 0c0 16.68161 -25.974548 30.204712 -58.015747 30.204712l0 0c-32.0412 0 -58.015747 -13.523102 -58.015747 -30.204712z" fill-rule="nonzero"></path><path fill="#cfe2f3" d="m253.7421 166.70465l9.818909 3.6141815l26.350677 -71.63625l19.637787 7.228348l-26.350677 71.63625l9.818909 3.6141663l-26.861938 12.4109955z" fill-rule="nonzero"></path><path stroke="#000000" stroke-width="2.0" stroke-linejoin="round" stroke-linecap="butt" d="m253.7421 166.70465l9.818909 3.6141815l26.350677 -71.63625l19.637787 7.228348l-26.350677 71.63625l9.818909 3.6141663l-26.861938 12.4109955z" fill-rule="nonzero"></path><path fill="#cfe2f3" d="m386.82248 114.76879l-9.834625 3.5590515l25.981628 71.76473l-19.669281 7.118103l-25.981659 -71.764725l-9.834625 3.5590515l12.548584 -26.786453z" fill-rule="nonzero"></path><path stroke="#000000" stroke-width="2.0" stroke-linejoin="round" stroke-linecap="butt" d="m386.82248 114.76879l-9.834625 3.5590515l25.981628 71.76473l-19.669281 7.118103l-25.981659 -71.764725l-9.834625 3.5590515l12.548584 -26.786453z" fill-rule="nonzero"></path><path fill="#000000" fill-opacity="0.0" d="m266.15576 193.57234l-76.20854 60.900406" fill-rule="nonzero"></path><path stroke="#000000" stroke-width="2.0" stroke-linejoin="round" stroke-linecap="butt" d="m266.15576 193.57234l-66.83414 53.409058" fill-rule="evenodd"></path><path fill="#000000" stroke="#000000" stroke-width="2.0" stroke-linecap="butt" d="m197.25934 244.40073l-5.0280457 8.24675l9.152618 -3.0854187z" fill-rule="evenodd"></path><path fill="#000000" fill-opacity="0.0" d="m266.15576 193.57234l25.870789 121.30986" fill-rule="nonzero"></path><path stroke="#000000" stroke-width="2.0" stroke-linejoin="round" stroke-linecap="butt" d="m266.15576 193.57234l23.36792 109.57378" fill-rule="evenodd"></path><path fill="#000000" stroke="#000000" stroke-width="2.0" stroke-linecap="butt" d="m286.29285 303.8351l5.123871 8.187592l1.3377686 -9.565613z" fill-rule="evenodd"></path><path fill="#000000" fill-opacity="0.0" d="m266.15576 193.57234l193.00433 82.25838" fill-rule="nonzero"></path><path stroke="#000000" stroke-width="2.0" stroke-linejoin="round" stroke-linecap="butt" d="m266.15576 193.57234l181.96515 77.55345" fill-rule="evenodd"></path><path fill="#000000" stroke="#000000" stroke-width="2.0" stroke-linecap="butt" d="m446.8257 274.16476l9.644684 0.5195923l-7.054291 -6.5975037z" fill-rule="evenodd"></path><path fill="#000000" fill-opacity="0.0" d="m206.93964 275.83072l186.19522 -82.17909" fill-rule="nonzero"></path><path stroke="#000000" stroke-width="2.0" stroke-linejoin="round" stroke-linecap="butt" d="m206.93964 275.83072l175.21695 -77.33374" fill-rule="evenodd"></path><path fill="#000000" stroke="#000000" stroke-width="2.0" stroke-linecap="butt" d="m383.49045 201.51918l6.9695435 -6.686981l-9.637299 0.6425934z" fill-rule="evenodd"></path><path fill="#000000" fill-opacity="0.0" d="m374.0732 314.8822l19.061646 -121.230576" fill-rule="nonzero"></path><path stroke="#000000" stroke-width="2.0" stroke-linejoin="round" stroke-linecap="butt" d="m374.0732 314.8822l17.197693 -109.376236" fill-rule="evenodd"></path><path fill="#000000" stroke="#000000" stroke-width="2.0" stroke-linecap="butt" d="m394.5343 206.01909l-1.8536072 -9.4791565l-4.673126 8.452927z" fill-rule="evenodd"></path><path fill="#000000" fill-opacity="0.0" d="m476.15253 254.47275l-83.01767 -60.82112" fill-rule="nonzero"></path><path stroke="#000000" stroke-width="2.0" stroke-linejoin="round" stroke-linecap="butt" d="m476.15253 254.47275l-73.337555 -53.729202" fill-rule="evenodd"></path><path fill="#000000" stroke="#000000" stroke-width="2.0" stroke-linecap="butt" d="m404.76727 198.07872l-9.273865 -2.6991577l5.369232 8.028809z" fill-rule="evenodd"></path><path fill="#000000" fill-opacity="0.0" d="m107.41207 258.8701l83.02363 0l0 33.921265l-83.02363 0z" fill-rule="nonzero"></path><path fill="#000000" d="m120.25582 284.7607l-3.609375 -13.59375l1.84375 0l2.0625 8.90625q0.34375 1.40625 0.578125 2.78125q0.515625 -2.171875 0.609375 -2.515625l2.59375 -9.171875l2.171875 0l1.9531326 6.875q0.734375 2.5625 1.046875 4.8125q0.265625 -1.28125 0.6875 -2.953125l2.125 -8.734375l1.8125 0l-3.734375 13.59375l-1.734375 0l-2.8593826 -10.359375q-0.359375 -1.296875 -0.421875 -1.59375q-0.21875 0.9375 -0.40625 1.59375l-2.890625 10.359375l-1.828125 0zm14.389915 -4.921875q0 -2.734375 1.53125 -4.0625q1.265625 -1.09375 3.09375 -1.09375q2.03125 0 3.3125 1.34375q1.296875 1.328125 1.296875 3.671875q0 1.90625 -0.578125 3.0q-0.5625 1.078125 -1.65625 1.6875q-1.078125 0.59375 -2.375 0.59375q-2.0625 0 -3.34375 -1.328125q-1.28125 -1.328125 -1.28125 -3.8125zm1.71875 0q0 1.890625 0.828125 2.828125q0.828125 0.9375 2.078125 0.9375q1.25 0 2.0625 -0.9375q0.828125 -0.953125 0.828125 -2.890625q0 -1.828125 -0.828125 -2.765625q-0.828125 -0.9375 -2.0625 -0.9375q-1.25 0 -2.078125 0.9375q-0.828125 0.9375 -0.828125 2.828125zm9.266342 4.921875l0 -9.859375l1.5 0l0 1.5q0.578125 -1.046875 1.0625 -1.375q0.484375 -0.34375 1.078125 -0.34375q0.84375 0 1.71875 0.546875l-0.578125 1.546875q-0.609375 -0.359375 -1.234375 -0.359375q-0.546875 0 -0.984375 0.328125q-0.421875 0.328125 -0.609375 0.90625q-0.28125 0.890625 -0.28125 1.953125l0 5.15625l-1.671875 0zm6.243927 0l0 -13.59375l1.671875 0l0 7.75l3.953125 -4.015625l2.15625 0l-3.765625 3.65625l4.140625 6.203125l-2.0625 0l-3.25 -5.03125l-1.171875 1.125l0 3.90625l-1.671875 0zm16.0625 -3.171875l1.71875 0.21875q-0.40625 1.5 -1.515625 2.34375q-1.09375 0.828125 -2.8125 0.828125q-2.15625 0 -3.421875 -1.328125q-1.265625 -1.328125 -1.265625 -3.734375q0 -2.484375 1.265625 -3.859375q1.28125 -1.375 3.328125 -1.375q1.984375 0 3.234375 1.34375q1.25 1.34375 1.25 3.796875q0 0.140625 -0.015625 0.4375l-7.34375 0q0.09375 1.625 0.921875 2.484375q0.828125 0.859375 2.0625 0.859375q0.90625 0 1.546875 -0.46875q0.65625 -0.484375 1.046875 -1.546875zm-5.484375 -2.703125l5.5 0q-0.109375 -1.234375 -0.625 -1.859375q-0.796875 -0.96875 -2.078125 -0.96875q-1.140625 0 -1.9375 0.78125q-0.78125 0.765625 -0.859375 2.046875zm9.094467 5.875l0 -9.859375l1.5 0l0 1.5q0.578125 -1.046875 1.0625 -1.375q0.484375 -0.34375 1.078125 -0.34375q0.84375 0 1.71875 0.546875l-0.578125 1.546875q-0.609375 -0.359375 -1.234375 -0.359375q-0.546875 0 -0.984375 0.328125q-0.421875 0.328125 -0.609375 0.90625q-0.28125 0.890625 -0.28125 1.953125l0 5.15625l-1.671875 0z" fill-rule="nonzero"></path><path fill="#000000" fill-opacity="0.0" d="m291.53806 319.27954l83.02362 0l0 33.921234l-83.02362 0z" fill-rule="nonzero"></path><path fill="#000000" d="m304.3818 345.17017l-3.609375 -13.59375l1.84375 0l2.0625 8.90625q0.34375 1.40625 0.578125 2.78125q0.515625 -2.171875 0.609375 -2.515625l2.59375 -9.171875l2.171875 0l1.953125 6.875q0.734375 2.5625 1.046875 4.8125q0.265625 -1.28125 0.6875 -2.953125l2.125 -8.734375l1.8125 0l-3.734375 13.59375l-1.734375 0l-2.859375 -10.359375q-0.359375 -1.296875 -0.421875 -1.59375q-0.21875 0.9375 -0.40625 1.59375l-2.890625 10.359375l-1.828125 0zm14.389923 -4.921875q0 -2.734375 1.53125 -4.0625q1.265625 -1.09375 3.09375 -1.09375q2.03125 0 3.3125 1.34375q1.296875 1.328125 1.296875 3.671875q0 1.90625 -0.578125 3.0q-0.5625 1.078125 -1.65625 1.6875q-1.078125 0.59375 -2.375 0.59375q-2.0625 0 -3.34375 -1.328125q-1.28125 -1.328125 -1.28125 -3.8125zm1.71875 0q0 1.890625 0.828125 2.828125q0.828125 0.9375 2.078125 0.9375q1.25 0 2.0625 -0.9375q0.828125 -0.953125 0.828125 -2.890625q0 -1.828125 -0.828125 -2.765625q-0.828125 -0.9375 -2.0625 -0.9375q-1.25 0 -2.078125 0.9375q-0.828125 0.9375 -0.828125 2.828125zm9.266327 4.921875l0 -9.859375l1.5 0l0 1.5q0.578125 -1.046875 1.0625 -1.375q0.484375 -0.34375 1.078125 -0.34375q0.84375 0 1.71875 0.546875l-0.578125 1.546875q-0.609375 -0.359375 -1.234375 -0.359375q-0.546875 0 -0.984375 0.328125q-0.421875 0.328125 -0.609375 0.90625q-0.28125 0.890625 -0.28125 1.953125l0 5.15625l-1.671875 0zm6.243927 0l0 -13.59375l1.671875 0l0 7.75l3.953125 -4.015625l2.15625 0l-3.765625 3.65625l4.140625 6.203125l-2.0625 0l-3.25 -5.03125l-1.171875 1.125l0 3.90625l-1.671875 0zm16.0625 -3.171875l1.71875 0.21875q-0.40625 1.5 -1.515625 2.34375q-1.09375 0.828125 -2.8125 0.828125q-2.15625 0 -3.421875 -1.328125q-1.265625 -1.328125 -1.265625 -3.734375q0 -2.484375 1.265625 -3.859375q1.28125 -1.375 3.328125 -1.375q1.984375 0 3.234375 1.34375q1.25 1.34375 1.25 3.796875q0 0.140625 -0.015625 0.4375l-7.34375 0q0.09375 1.625 0.921875 2.484375q0.828125 0.859375 2.0625 0.859375q0.90625 0 1.546875 -0.46875q0.65625 -0.484375 1.046875 -1.546875zm-5.484375 -2.703125l5.5 0q-0.109375 -1.234375 -0.625 -1.859375q-0.796875 -0.96875 -2.078125 -0.96875q-1.140625 0 -1.9375 0.78125q-0.78125 0.765625 -0.859375 2.046875zm9.094482 5.875l0 -9.859375l1.5 0l0 1.5q0.578125 -1.046875 1.0625 -1.375q0.484375 -0.34375 1.078125 -0.34375q0.84375 0 1.71875 0.546875l-0.578125 1.546875q-0.609375 -0.359375 -1.234375 -0.359375q-0.546875 0 -0.984375 0.328125q-0.421875 0.328125 -0.609375 0.90625q-0.28125 0.890625 -0.28125 1.953125l0 5.15625l-1.671875 0z" fill-rule="nonzero"></path><path fill="#000000" fill-opacity="0.0" d="m475.66403 258.8701l83.02365 0l0 25.51181l-83.02365 0z" fill-rule="nonzero"></path><path fill="#000000" d="m488.50778 284.7607l-3.609375 -13.59375l1.84375 0l2.0625 8.90625q0.34375 1.40625 0.578125 2.78125q0.515625 -2.171875 0.609375 -2.515625l2.59375 -9.171875l2.171875 0l1.953125 6.875q0.734375 2.5625 1.046875 4.8125q0.265625 -1.28125 0.6875 -2.953125l2.125 -8.734375l1.8125 0l-3.734375 13.59375l-1.734375 0l-2.859375 -10.359375q-0.359375 -1.296875 -0.421875 -1.59375q-0.21875 0.9375 -0.40625 1.59375l-2.890625 10.359375l-1.828125 0zm14.389923 -4.921875q0 -2.734375 1.53125 -4.0625q1.265625 -1.09375 3.09375 -1.09375q2.03125 0 3.3125 1.34375q1.296875 1.328125 1.296875 3.671875q0 1.90625 -0.578125 3.0q-0.5625 1.078125 -1.65625 1.6875q-1.078125 0.59375 -2.375 0.59375q-2.0625 0 -3.34375 -1.328125q-1.28125 -1.328125 -1.28125 -3.8125zm1.71875 0q0 1.890625 0.828125 2.828125q0.828125 0.9375 2.078125 0.9375q1.25 0 2.0625 -0.9375q0.828125 -0.953125 0.828125 -2.890625q0 -1.828125 -0.828125 -2.765625q-0.828125 -0.9375 -2.0625 -0.9375q-1.25 0 -2.078125 0.9375q-0.828125 0.9375 -0.828125 2.828125zm9.266357 4.921875l0 -9.859375l1.5 0l0 1.5q0.578125 -1.046875 1.0625 -1.375q0.484375 -0.34375 1.078125 -0.34375q0.84375 0 1.71875 0.546875l-0.578125 1.546875q-0.609375 -0.359375 -1.234375 -0.359375q-0.546875 0 -0.984375 0.328125q-0.421875 0.328125 -0.609375 0.90625q-0.28125 0.890625 -0.28125 1.953125l0 5.15625l-1.671875 0zm6.2438965 0l0 -13.59375l1.671875 0l0 7.75l3.953125 -4.015625l2.15625 0l-3.765625 3.65625l4.140625 6.203125l-2.0625 0l-3.25 -5.03125l-1.171875 1.125l0 3.90625l-1.671875 0zm16.0625 -3.171875l1.71875 0.21875q-0.40625 1.5 -1.515625 2.34375q-1.09375 0.828125 -2.8125 0.828125q-2.15625 0 -3.421875 -1.328125q-1.265625 -1.328125 -1.265625 -3.734375q0 -2.484375 1.265625 -3.859375q1.28125 -1.375 3.328125 -1.375q1.984375 0 3.234375 1.34375q1.25 1.34375 1.25 3.796875q0 0.140625 -0.015625 0.4375l-7.34375 0q0.09375 1.625 0.921875 2.484375q0.828125 0.859375 2.0625 0.859375q0.90625 0 1.546875 -0.46875q0.65625 -0.484375 1.046875 -1.546875zm-5.484375 -2.703125l5.5 0q-0.109375 -1.234375 -0.625 -1.859375q-0.796875 -0.96875 -2.078125 -0.96875q-1.140625 0 -1.9375 0.78125q-0.78125 0.765625 -0.859375 2.046875zm9.094482 5.875l0 -9.859375l1.5 0l0 1.5q0.578125 -1.046875 1.0625 -1.375q0.484375 -0.34375 1.078125 -0.34375q0.84375 0 1.71875 0.546875l-0.578125 1.546875q-0.609375 -0.359375 -1.234375 -0.359375q-0.546875 0 -0.984375 0.328125q-0.421875 0.328125 -0.609375 0.90625q-0.28125 0.890625 -0.28125 1.953125l0 5.15625l-1.671875 0z" fill-rule="nonzero"></path></g></svg>

