<?xml version="1.0" standalone="yes"?>

<svg version="1.1" viewBox="0.0 0.0 960.0 720.0" fill="none" stroke="none" stroke-linecap="square" stroke-miterlimit="10" xmlns="http://www.w3.org/2000/svg" xmlns:xlink="http://www.w3.org/1999/xlink"><clipPath id="p.0"><path d="m0 0l960.0 0l0 720.0l-960.0 0l0 -720.0z" clip-rule="nonzero"></path></clipPath><g clip-path="url(#p.0)"><path fill="#000000" fill-opacity="0.0" d="m0 0l960.0 0l0 720.0l-960.0 0z" fill-rule="nonzero"></path><path fill="#cfe2f3" d="m399.84253 146.25722l0 0c0 -21.160767 35.887726 -38.314957 80.15747 -38.314957l0 0c44.269775 0 80.15747 17.15419 80.15747 38.314957l0 0c0 21.160767 -35.887695 38.314957 -80.15747 38.314957l0 0c-44.269745 0 -80.15747 -17.15419 -80.15747 -38.314957z" fill-rule="nonzero"></path><path stroke="#000000" stroke-width="2.0" stroke-linejoin="round" stroke-linecap="butt" d="m399.84253 146.25722l0 0c0 -21.160767 35.887726 -38.314957 80.15747 -38.314957l0 0c44.269775 0 80.15747 17.15419 80.15747 38.314957l0 0c0 21.160767 -35.887695 38.314957 -80.15747 38.314957l0 0c-44.269745 0 -80.15747 -17.15419 -80.15747 -38.314957z" fill-rule="nonzero"></path><path fill="#cfe2f3" d="m133.66142 344.68765l0 0c0 -21.160767 35.887726 -38.31494 80.15747 -38.31494l0 0c44.26976 0 80.157486 17.154175 80.157486 38.31494l0 0c0 21.160767 -35.887726 38.314972 -80.157486 38.314972l0 0c-44.269745 0 -80.15747 -17.154205 -80.15747 -38.314972z" fill-rule="nonzero"></path><path stroke="#000000" stroke-width="2.0" stroke-linejoin="round" stroke-linecap="butt" d="m133.66142 344.68765l0 0c0 -21.160767 35.887726 -38.31494 80.15747 -38.31494l0 0c44.26976 0 80.157486 17.154175 80.157486 38.31494l0 0c0 21.160767 -35.887726 38.314972 -80.157486 38.314972l0 0c-44.269745 0 -80.15747 -17.154205 -80.15747 -38.314972z" fill-rule="nonzero"></path><path fill="#cfe2f3" d="m399.84253 344.68765l0 0c0 -21.160767 35.887726 -38.31494 80.15747 -38.31494l0 0c44.269775 0 80.15747 17.154175 80.15747 38.31494l0 0c0 21.160767 -35.887695 38.314972 -80.15747 38.314972l0 0c-44.269745 0 -80.15747 -17.154205 -80.15747 -38.314972z" fill-rule="nonzero"></path><path stroke="#000000" stroke-width="2.0" stroke-linejoin="round" stroke-linecap="butt" d="m399.84253 344.68765l0 0c0 -21.160767 35.887726 -38.31494 80.15747 -38.31494l0 0c44.269775 0 80.15747 17.154175 80.15747 38.31494l0 0c0 21.160767 -35.887695 38.314972 -80.15747 38.314972l0 0c-44.269745 0 -80.15747 -17.154205 -80.15747 -38.314972z" fill-rule="nonzero"></path><path fill="#cfe2f3" d="m666.0236 344.68765l0 0c0 -21.160767 35.887756 -38.31494 80.15747 -38.31494l0 0c44.269775 0 80.15747 17.154175 80.15747 38.31494l0 0c0 21.160767 -35.887695 38.314972 -80.15747 38.314972l0 0c-44.269714 0 -80.15747 -17.154205 -80.15747 -38.314972z" fill-rule="nonzero"></path><path stroke="#000000" stroke-width="2.0" stroke-linejoin="round" stroke-linecap="butt" d="m666.0236 344.68765l0 0c0 -21.160767 35.887756 -38.31494 80.15747 -38.31494l0 0c44.269775 0 80.15747 17.154175 80.15747 38.31494l0 0c0 21.160767 -35.887695 38.314972 -80.15747 38.314972l0 0c-44.269714 0 -80.15747 -17.154205 -80.15747 -38.314972z" fill-rule="nonzero"></path><path fill="#000000" fill-opacity="0.0" d="m480.0 184.57217l-209.50119 133.02274" fill-rule="nonzero"></path><path stroke="#000000" stroke-width="2.0" stroke-linejoin="round" stroke-linecap="butt" d="m480.0 184.57217l-199.37079 126.59042" fill-rule="evenodd"></path><path fill="#000000" stroke="#000000" stroke-width="2.0" stroke-linecap="butt" d="m278.85846 308.3738l-5.891388 7.6538696l9.432892 -2.076294z" fill-rule="evenodd"></path><path fill="#000000" fill-opacity="0.0" d="m480.0 184.57217l0 121.80054" fill-rule="nonzero"></path><path stroke="#000000" stroke-width="2.0" stroke-linejoin="round" stroke-linecap="butt" d="m480.0 184.57217l0 109.80054" fill-rule="evenodd"></path><path fill="#000000" stroke="#000000" stroke-width="2.0" stroke-linecap="butt" d="m476.69653 294.3727l3.3034668 9.076202l3.3034668 -9.076202z" fill-rule="evenodd"></path><path fill="#000000" fill-opacity="0.0" d="m480.0 184.57217l209.50122 133.02274" fill-rule="nonzero"></path><path stroke="#000000" stroke-width="2.0" stroke-linejoin="round" stroke-linecap="butt" d="m480.0 184.57217l199.37079 126.59042" fill-rule="evenodd"></path><path fill="#000000" stroke="#000000" stroke-width="2.0" stroke-linecap="butt" d="m677.6001 313.9514l9.432861 2.076294l-5.8914185 -7.6538696z" fill-rule="evenodd"></path><path fill="#cfe2f3" d="m213.73491 450.13385l56.755905 0l0 55.527557l-56.755905 0z" fill-rule="nonzero"></path><path stroke="#000000" stroke-width="2.0" stroke-linejoin="round" stroke-linecap="butt" d="m213.73491 450.13385l56.755905 0l0 55.527557l-56.755905 0z" fill-rule="nonzero"></path><path fill="#cfe2f3" d="m270.4987 450.13385l56.75592 0l0 55.527557l-56.75592 0z" fill-rule="nonzero"></path><path stroke="#000000" stroke-width="2.0" stroke-linejoin="round" stroke-linecap="butt" d="m270.4987 450.13385l56.75592 0l0 55.527557l-56.75592 0z" fill-rule="nonzero"></path><path fill="#cfe2f3" d="m327.2546 450.13385l56.75589 0l0 55.527557l-56.75589 0z" fill-rule="nonzero"></path><path stroke="#000000" stroke-width="2.0" stroke-linejoin="round" stroke-linecap="butt" d="m327.2546 450.13385l56.75589 0l0 55.527557l-56.75589 0z" fill-rule="nonzero"></path><path fill="#cfe2f3" d="m213.73491 505.6614l170.26772 0l0 55.527557l-170.26772 0z" fill-rule="nonzero"></path><path stroke="#000000" stroke-width="2.0" stroke-linejoin="round" stroke-linecap="butt" d="m213.73491 505.6614l170.26772 0l0 55.527557l-170.26772 0z" fill-rule="nonzero"></path><path fill="#000000" fill-opacity="0.0" d="m480.0 184.57217l-181.12335 265.56168" fill-rule="nonzero"></path><path stroke="#000000" stroke-width="2.0" stroke-linejoin="round" stroke-linecap="butt" d="m480.0 184.57217l-174.36182 255.64798" fill-rule="evenodd"></path><path fill="#000000" stroke="#000000" stroke-width="2.0" stroke-linecap="butt" d="m302.90903 438.35876l-2.3849487 9.359619l7.843231 -5.6368713z" fill-rule="evenodd"></path><path fill="#000000" fill-opacity="0.0" d="m213.8189 383.00262l28.29396 67.131226" fill-rule="nonzero"></path><path stroke="#000000" stroke-width="2.0" stroke-linejoin="round" stroke-linecap="butt" d="m213.8189 383.00262l23.633347 56.073273" fill-rule="evenodd"></path><path fill="#000000" stroke="#000000" stroke-width="2.0" stroke-linecap="butt" d="m234.4081 440.35892l6.5691986 7.080658l-0.4809265 -9.646698z" fill-rule="evenodd"></path><path fill="#000000" fill-opacity="0.0" d="m423.3201 371.78043l-67.68756 78.353424" fill-rule="nonzero"></path><path stroke="#000000" stroke-width="2.0" stroke-linejoin="round" stroke-linecap="butt" d="m423.3201 371.78043l-59.842865 69.272644" fill-rule="evenodd"></path><path fill="#000000" stroke="#000000" stroke-width="2.0" stroke-linecap="butt" d="m360.9774 438.8935l-3.4334717 9.027832l8.4331665 -4.7087097z" fill-rule="evenodd"></path><path fill="#000000" fill-opacity="0.0" d="m564.55646 146.80577l55.055115 -1.0708618" fill-rule="nonzero"></path><path stroke="#000000" stroke-width="2.0" stroke-linejoin="round" stroke-linecap="butt" d="m564.55646 146.80577l43.057373 -0.8374939" fill-rule="evenodd"></path><path fill="#000000" stroke="#000000" stroke-width="2.0" stroke-linecap="butt" d="m607.67804 149.27112l9.010254 -3.4793549l-9.138733 -3.1263275z" fill-rule="evenodd"></path><path fill="#000000" fill-opacity="0.0" d="m826.33856 344.68765l55.590576 0.7559204" fill-rule="nonzero"></path><path stroke="#000000" stroke-width="2.0" stroke-linejoin="round" stroke-linecap="butt" d="m826.33856 344.68765l43.591736 0.59277344" fill-rule="evenodd"></path><path fill="#000000" stroke="#000000" stroke-width="2.0" stroke-linecap="butt" d="m869.8853 348.58356l9.1203 -3.1797485l-9.030457 -3.4265442z" fill-rule="evenodd"></path><path fill="#cfe2f3" d="m440.7743 504.4462l0 0c0 -21.160767 35.887726 -38.314972 80.15747 -38.314972l0 0c44.269775 0 80.15747 17.154205 80.15747 38.314972l0 0c0 21.160736 -35.887695 38.314972 -80.15747 38.314972l0 0c-44.269745 0 -80.15747 -17.154236 -80.15747 -38.314972z" fill-rule="nonzero"></path><path stroke="#000000" stroke-width="2.0" stroke-linejoin="round" stroke-linecap="butt" d="m440.7743 504.4462l0 0c0 -21.160767 35.887726 -38.314972 80.15747 -38.314972l0 0c44.269775 0 80.15747 17.154205 80.15747 38.314972l0 0c0 21.160736 -35.887695 38.314972 -80.15747 38.314972l0 0c-44.269745 0 -80.15747 -17.154236 -80.15747 -38.314972z" fill-rule="nonzero"></path><path fill="#cfe2f3" d="m655.6142 448.08792l0 0c0 8.408203 40.548157 15.224426 90.566895 15.224426c50.018738 0 90.566956 -6.816223 90.566956 -15.224426l0 91.346466c0 8.408203 -40.548218 15.224426 -90.566956 15.224426c-50.018738 0 -90.566895 -6.816223 -90.566895 -15.224426z" fill-rule="nonzero"></path><path fill="#e2edf7" d="m655.6142 448.08792l0 0c0 -8.408203 40.548157 -15.224396 90.566895 -15.224396c50.018738 0 90.566956 6.8161926 90.566956 15.224396l0 0c0 8.408203 -40.548218 15.224426 -90.566956 15.224426c-50.018738 0 -90.566895 -6.816223 -90.566895 -15.224426z" fill-rule="nonzero"></path><path fill="#000000" fill-opacity="0.0" d="m836.74805 448.08792l0 0c0 8.408203 -40.548218 15.224426 -90.566956 15.224426c-50.018738 0 -90.566895 -6.816223 -90.566895 -15.224426l0 0c0 -8.408203 40.548157 -15.224396 90.566895 -15.224396c50.018738 0 90.566956 6.8161926 90.566956 15.224396l0 91.346466c0 8.408203 -40.548218 15.224426 -90.566956 15.224426c-50.018738 0 -90.566895 -6.816223 -90.566895 -15.224426l0 -91.346466" fill-rule="nonzero"></path><path stroke="#000000" stroke-width="2.0" stroke-linejoin="round" stroke-linecap="butt" d="m836.74805 448.08792l0 0c0 8.408203 -40.548218 15.224426 -90.566956 15.224426c-50.018738 0 -90.566895 -6.816223 -90.566895 -15.224426l0 0c0 -8.408203 40.548157 -15.224396 90.566895 -15.224396c50.018738 0 90.566956 6.8161926 90.566956 15.224396l0 91.346466c0 8.408203 -40.548218 15.224426 -90.566956 15.224426c-50.018738 0 -90.566895 -6.816223 -90.566895 -15.224426l0 -91.346466" fill-rule="nonzero"></path><path fill="#000000" fill-opacity="0.0" d="m384.00262 533.4252l56.771667 -28.978973" fill-rule="nonzero"></path><path stroke="#000000" stroke-width="2.0" stroke-linejoin="round" stroke-linecap="butt" d="m384.00262 533.4252l46.083588 -23.523254" fill-rule="evenodd"></path><path fill="#000000" stroke="#000000" stroke-width="2.0" stroke-linecap="butt" d="m431.5881 512.84424l6.5820312 -7.068756l-9.585846 1.1841125z" fill-rule="evenodd"></path><path fill="#000000" fill-opacity="0.0" d="m601.08923 504.4462l54.524963 -10.685028" fill-rule="nonzero"></path><path stroke="#000000" stroke-width="2.0" stroke-linejoin="round" stroke-linecap="butt" d="m601.08923 504.4462l42.748962 -8.37735" fill-rule="evenodd"></path><path fill="#000000" stroke="#000000" stroke-width="2.0" stroke-linecap="butt" d="m644.47345 499.31067l8.271484 -4.9872437l-9.542053 -1.4963684z" fill-rule="evenodd"></path><path fill="#000000" fill-opacity="0.0" d="m298.86877 561.18896l-43.023636 81.102356" fill-rule="nonzero"></path><path stroke="#000000" stroke-width="2.0" stroke-linejoin="round" stroke-linecap="butt" d="m298.86877 561.18896l-37.400085 70.50159" fill-rule="evenodd"></path><path fill="#000000" stroke="#000000" stroke-width="2.0" stroke-linecap="butt" d="m258.5504 630.1425l-1.335083 9.565918l7.171631 -6.4697266z" fill-rule="evenodd"></path><path fill="#000000" fill-opacity="0.0" d="m298.86877 561.18896l36.850372 73.543335" fill-rule="nonzero"></path><path stroke="#000000" stroke-width="2.0" stroke-linejoin="round" stroke-linecap="butt" d="m298.86877 561.18896l31.47464 62.81482" fill-rule="evenodd"></path><path fill="#000000" stroke="#000000" stroke-width="2.0" stroke-linecap="butt" d="m327.38995 625.48364l7.019409 6.6346436l-1.1125183 -9.594421z" fill-rule="evenodd"></path></g></svg>

